<?xml version="1.0" encoding="UTF-8"?>
<svg width="1423px" height="461px" viewBox="0 0 1423 461" version="1.1" xmlns="http://www.w3.org/2000/svg" xmlns:xlink="http://www.w3.org/1999/xlink">
    <!-- Generator: Sketch 43.1 (39012) - http://www.bohemiancoding.com/sketch -->
    <title>Logo</title>
    <desc>Created with Sketch.</desc>
    <defs></defs>
    <g id="Page-1" stroke="none" stroke-width="1" fill="none" fill-rule="evenodd">
        <g id="Logo---FULL-SVG">
            <path d="M470.032,208.178602 L446.0806,208.178602 L446.0806,161.727403 L473.660999,159.550003 L480.918999,112.373004 L532.450798,112.373004 L532.450798,159.550003 L573.821398,159.550003 L573.821398,208.178602 L532.450798,208.178602 L532.450798,270.234501 C532.450798,280.395752 534.628177,287.351265 538.982998,291.101251 C543.33782,294.851236 548.418369,296.726201 554.224798,296.726201 C557.128013,296.726201 559.970701,296.423787 562.752948,295.818951 C565.535195,295.214114 568.014987,294.548804 570.192398,293.823001 L579.627798,338.8226 C574.789107,340.274207 568.982765,341.725793 562.208598,343.1774 C555.434431,344.629007 546.966849,345.3548 536.805598,345.3548 C524.950806,345.3548 514.85019,343.600801 506.503449,340.09275 C498.156707,336.584699 491.261676,331.564633 485.818149,325.0324 C480.374622,318.500168 476.382762,310.697896 473.842449,301.625351 C471.302137,292.552805 470.032,282.45219 470.032,271.323201 L470.032,208.178602 Z M598.078197,159.550003 L648.884196,159.550003 L653.238996,190.759403 L654.690596,190.759403 C661.464763,178.420741 669.508966,169.408815 678.823446,163.723353 C688.137925,158.037891 697.270817,155.195203 706.222395,155.195203 C711.78689,155.195203 716.262612,155.497617 719.649695,156.102453 C723.036779,156.707289 726.060915,157.61453 728.722195,158.824203 L718.560995,212.533402 C715.173912,211.807599 711.968327,211.142289 708.944145,210.537452 C705.919963,209.932616 702.351483,209.630202 698.238595,209.630202 C691.706363,209.630202 684.871815,211.868063 677.734746,216.343852 C670.597677,220.819641 664.851818,228.742878 660.496996,240.113802 L660.496996,341 L598.078197,341 L598.078197,159.550003 Z M771.849794,137.050203 C761.688543,137.050203 753.341927,134.147033 746.809694,128.340604 C740.277462,122.534175 737.011394,115.034316 737.011394,105.840804 C737.011394,96.6472915 740.277462,89.1474333 746.809694,83.3410043 C753.341927,77.5345754 761.688543,74.6314045 771.849794,74.6314045 C782.011045,74.6314045 790.357661,77.5345754 796.889893,83.3410043 C803.422126,89.1474333 806.688193,96.6472915 806.688193,105.840804 C806.688193,115.034316 803.422126,122.534175 796.889893,128.340604 C790.357661,134.147033 782.011045,137.050203 771.849794,137.050203 Z M740.640394,159.550003 L803.059193,159.550003 L803.059193,341 L740.640394,341 L740.640394,159.550003 Z M898.444392,354.7902 L898.444392,404.870399 L836.025593,404.870399 L836.025593,159.550003 L886.831592,159.550003 L891.186392,176.243403 L892.637992,176.243403 C899.412159,169.953105 907.032982,164.872556 915.500691,161.001603 C923.9684,157.13065 932.798878,155.195203 941.992391,155.195203 C952.63751,155.195203 962.314747,157.372581 971.02439,161.727403 C979.734034,166.082225 987.173409,172.251463 993.34274,180.235303 C999.512071,188.219142 1004.22972,197.896379 1007.49584,209.267302 C1010.76196,220.638226 1012.39499,233.339598 1012.39499,247.371802 C1012.39499,263.097547 1010.27809,277.008574 1006.04424,289.105301 C1001.81039,301.202028 996.185492,311.423609 989.16939,319.77035 C982.153288,328.117092 974.109086,334.467778 965.03654,338.8226 C955.963995,343.177422 946.589172,345.3548 936.911791,345.3548 C921.911849,345.3548 908.363718,339.306527 896.266992,327.2098 L898.444392,354.7902 Z M898.444392,285.839201 C902.07341,289.226284 905.823339,291.524628 909.694291,292.734301 C913.565244,293.943974 917.557104,294.548801 921.669991,294.548801 C928.928027,294.548801 935.218231,291.161768 940.540791,284.387601 C945.863351,277.613434 948.524591,265.516888 948.524591,248.097602 C948.524591,233.09766 946.407695,222.331735 942.173841,215.799502 C937.939986,209.26727 931.5893,206.001202 923.121591,206.001202 C918.2829,206.001202 913.988627,206.968926 910.238641,208.904402 C906.488656,210.839879 902.557279,214.226911 898.444392,219.065602 L898.444392,285.839201 Z M1037.37759,88.4216042 L1099.79639,88.4216042 L1099.79639,279.307001 C1099.79639,285.597299 1100.94556,289.83109 1103.24394,292.008501 C1105.54232,294.185912 1107.78018,295.274601 1109.95759,295.274601 L1113.04224,295.274601 C1113.88901,295.274601 1115.03818,295.03267 1116.48979,294.548801 L1123.74779,340.2742 C1120.3607,341.725807 1116.1874,342.935462 1111.22774,343.9032 C1106.26808,344.870938 1100.28029,345.3548 1093.26419,345.3548 C1082.61907,345.3548 1073.72811,343.721766 1066.59104,340.45565 C1059.45397,337.189534 1053.70811,332.532364 1049.35329,326.484 C1044.99847,320.435637 1041.91385,313.238192 1040.09934,304.891451 C1038.28483,296.544709 1037.37759,287.290852 1037.37759,277.129601 L1037.37759,88.4216042 Z M1126.95639,250.275002 C1126.95639,235.516995 1129.43618,222.271277 1134.39584,210.537452 C1139.3555,198.803627 1145.88763,188.823977 1153.99244,180.598203 C1162.09724,172.372428 1171.3511,166.082225 1181.75429,161.727403 C1192.15747,157.372581 1202.9234,155.195203 1214.05239,155.195203 C1227.35879,155.195203 1238.97147,157.493547 1248.89079,162.090303 C1258.8101,166.687059 1267.03575,172.977263 1273.56798,180.961103 C1280.10022,188.944942 1284.99932,198.259283 1288.26543,208.904402 C1291.53155,219.549522 1293.16458,230.920275 1293.16458,243.017002 C1293.16458,248.581496 1292.86217,253.54108 1292.25733,257.895901 C1291.6525,262.250723 1291.10815,265.51679 1290.62428,267.694201 L1187.19779,267.694201 C1190.101,279.307059 1195.30252,287.290779 1202.80249,291.645601 C1210.30246,296.000423 1219.13293,298.177801 1229.29419,298.177801 C1235.58448,298.177801 1241.69324,297.27056 1247.62064,295.456051 C1253.54803,293.641542 1259.77775,290.919819 1266.30998,287.290801 L1286.63238,324.3066 C1276.71307,331.322702 1265.76569,336.584699 1253.78993,340.09275 C1241.81418,343.600801 1230.74584,345.3548 1220.58459,345.3548 C1207.27819,345.3548 1194.93971,343.237904 1183.56879,339.00405 C1172.19786,334.770196 1162.33918,328.600957 1153.99244,320.49615 C1145.6457,312.391343 1139.05308,302.411693 1134.21439,290.556901 C1129.3757,278.702108 1126.95639,265.274943 1126.95639,250.275002 Z M1240.18119,229.952602 C1240.18119,222.210697 1238.42719,215.678562 1234.91914,210.356002 C1231.41108,205.033442 1224.93943,202.372202 1215.50399,202.372202 C1208.48788,202.372202 1202.37913,204.428615 1197.17754,208.541502 C1191.97594,212.654389 1188.40746,219.791351 1186.47199,229.952602 L1240.18119,229.952602 Z M1304.26658,288.872002 C1304.26658,279.966758 1305.67837,272.066187 1308.50198,265.170053 C1311.3256,258.273919 1315.12656,252.463877 1319.90498,247.739753 C1324.68341,243.01563 1330.1948,239.404716 1336.43933,236.906904 C1342.68386,234.409092 1349.22695,233.160204 1356.06878,233.160204 C1362.80202,233.160204 1368.9107,234.54484 1374.39503,237.314154 C1379.87936,240.083468 1384.52196,243.368585 1388.32298,247.169604 L1373.01038,264.437003 C1370.40397,262.156392 1367.85189,260.391659 1365.35408,259.142753 C1362.85627,257.893847 1359.8698,257.269403 1356.39458,257.269403 C1353.24517,257.269403 1350.23155,257.975296 1347.35363,259.387103 C1344.47572,260.79891 1341.97794,262.80799 1339.86023,265.414403 C1337.74252,268.020816 1336.05924,271.224484 1334.81033,275.025502 C1333.56143,278.826521 1332.93698,283.116178 1332.93698,287.894602 C1332.93698,297.885852 1335.02751,305.542075 1339.20863,310.863501 C1343.38975,316.184928 1348.90115,318.845601 1355.74298,318.845601 C1359.8698,318.845601 1363.42642,318.058259 1366.41293,316.483551 C1369.39945,314.908843 1372.03297,312.872614 1374.31358,310.374801 L1389.62618,327.316401 C1385.06496,332.529226 1379.85221,336.438787 1373.98778,339.0452 C1368.12335,341.651613 1361.93321,342.9548 1355.41718,342.9548 C1348.46675,342.9548 1341.89651,341.841661 1335.70628,339.61535 C1329.51605,337.389039 1324.08611,334.022473 1319.41628,329.51555 C1314.74646,325.008628 1311.0541,319.361485 1308.33908,312.573951 C1305.62407,305.786417 1304.26658,297.885847 1304.26658,288.872002 Z M1395.15718,235.115004 L1423.17598,235.115004 L1423.17598,341 L1395.15718,341 L1395.15718,235.115004 Z" id="tripleCI" fill="#393E46"></path>
            <g id="Group-3" transform="translate(197.500000, 230.500000) rotate(45.000000) translate(-197.500000, -230.500000) translate(58.000000, 91.000000)">
                <path d="M276.815532,86.8257128 C278.213934,83.1784348 278.980107,79.2178496 278.980107,75.0781995 L278.980107,32.8091962 C278.980107,14.6905765 264.29247,-2.52863633e-14 246.174351,-2.52863633e-14 L32.8057565,-2.52863633e-14 C14.679686,-2.52863633e-14 5.33904662e-13,14.6891775 5.33904662e-13,32.8091962 L5.33904662e-13,75.0781995 C5.33904662e-13,79.217746 0.766667853,83.1783548 2.16575438,86.8257128 L276.815532,86.8257128 Z" id="Combined-Shape" fill="#D04F94"></path>
                <path d="M276.815532,278.820599 C278.213934,275.173321 278.980107,271.212736 278.980107,267.073086 L278.980107,224.804082 C278.980107,206.685463 264.29247,191.994886 246.174351,191.994886 L32.8057565,191.994886 C14.679686,191.994886 6.82121026e-14,206.684064 6.82121026e-14,224.804082 L6.82121026e-14,267.073086 C6.82121026e-14,271.212632 0.766667853,275.173241 2.16575438,278.820599 L276.815532,278.820599 Z" id="Combined-Shape" fill="#50E3C2" transform="translate(139.490054, 235.407743) scale(1, -1) translate(-139.490054, -235.407743) "></path>
                <rect id="Rectangle-5" fill="#F6A623" x="5.90748081e-13" y="95.9974431" width="278.980107" height="86.8257128"></rect>
            </g>
        </g>
    </g>
</svg>